<svg height="512" width="512" xmlns="http://www.w3.org/2000/svg" style=""><rect id="backgroundrect" width="100%" height="100%" x="0" y="0" fill="none" stroke="none" style="" class=""/><g class="currentLayer" style=""><title>Layer 1</title><path d="m413.41796875,382.1608142852783 c-32.25390625,-27.265625 -50.75,-67.1171875 -50.75,-109.3359375 v-59.4765625 c0,-75.0703125 -55.765625,-137.21484375 -128,-147.625 v-23.04296875 c0,-11.796875 -9.55859375,-21.33203125 -21.3359375,-21.33203125 c-11.773436546325684,0 -21.33203125,9.53515625 -21.33203125,21.33203125 v23.04296875 c-72.2578125,10.41015625 -128,72.5546875 -128,147.625 v59.4765625 c0,42.21875 -18.49609375,82.0703125 -50.9453125,109.50390625 c-8.296875953674316,7.105469226837158 -13.054688453674316,17.4296875 -13.054688453674316,28.3515625 c0,20.58984375 16.74609375,37.3359375 37.33203125,37.3359375 h352 c20.58984375,0 37.3359375,-16.74609375 37.3359375,-37.3359375 c0,-10.921875 -4.757812976837158,-21.24609375 -13.25,-28.51953125 zm0,0 " id="svg_1" class="" fill="#ffffff" fill-opacity="1"/><path d="m213.332031 512c38.636719 0 70.957031-27.542969 78.378907-64h-156.757813c7.425781 36.457031 39.746094 64 78.378906 64zm0 0" id="svg_2" class="" fill="#ffffff" fill-opacity="1"/></g></svg>